<svg width="80" height="95" viewBox="0 0 80 95" fill="none" xmlns="http://www.w3.org/2000/svg">
<path d="M80 74.243V18.043L60 25.243L59.8741 25.3234L60 25.2848V74.243H80Z" fill="#FFAB00"/>
<path d="M80 18.0429V5.00338C80 1.64211 76.7498 -0.761713 73.5359 0.222553L20 16.6179V37.5348L59.8741 25.3233L60 25.2429L80 18.0429Z" fill="#0277FF"/>
<path fill-rule="evenodd" clip-rule="evenodd" d="M20 74.2427V37.5345V16.6177L3.53587 21.6598C1.43474 22.3033 0 24.2432 0 26.4406V74.2427H20Z" fill="#62EC87"/>
<path d="M0 74.2427H80V84.2427C80 89.7655 75.5229 94.2427 70 94.2427H10C4.47715 94.2427 0 89.7655 0 84.2427V74.2427Z" fill="#FF1D3E"/>
</svg>
