<svg width="28" height="28" viewBox="0 0 28 28" fill="none" xmlns="http://www.w3.org/2000/svg">
<path d="M0 10C0 9.44772 0.447715 9 1 9H16.2414C16.7937 9 17.2414 9.44772 17.2414 10V24.9492C17.2414 25.5015 16.7937 25.9492 16.2414 25.9492H1C0.447716 25.9492 0 25.5015 0 24.9492V10Z" fill="#FF1D3E"/>
<path d="M5 8.47459C5 3.7942 8.7942 0 13.4746 0H13.7668C18.4472 0 22.2414 3.7942 22.2414 8.47459C22.2414 13.155 18.4472 16.9492 13.7668 16.9492H13.4746C8.7942 16.9492 5 13.155 5 8.47459Z" fill="#0277FF"/>
<path d="M18.0881 12.774C18.3961 11.8712 19.6729 11.8712 19.9809 12.774L21.2809 16.5841C21.419 16.989 21.7995 17.2612 22.2273 17.2612H26.3261C27.3066 17.2612 27.7014 18.5256 26.8951 19.0835L23.6645 21.3188C23.2968 21.5733 23.1427 22.0409 23.287 22.4641L24.5406 26.1383C24.8521 27.0511 23.8183 27.8323 23.0252 27.2836L19.6035 24.9161C19.2611 24.6792 18.8079 24.6792 18.4655 24.9161L15.0438 27.2836C14.2507 27.8323 13.2169 27.0511 13.5284 26.1383L14.7819 22.4641C14.9263 22.0409 14.7722 21.5733 14.4045 21.3188L11.1739 19.0835C10.3675 18.5256 10.7623 17.2612 11.7429 17.2612H15.8417C16.2695 17.2612 16.65 16.989 16.7881 16.5841L18.0881 12.774Z" fill="#FFAB00"/>
</svg>
